<svg xmlns="http://www.w3.org/2000/svg" xmlns:xlink="http://www.w3.org/1999/xlink" version="1.2" width="86.57mm" height="13.69mm" viewBox="8.5358 0.0000 49.2653 7.7900">
<style type="text/css">
<![CDATA[
tspan { white-space: pre; }
]]>
</style>
<g transform="translate(0.0000, 7.2400)">
<rect x="16.9098" y="-0.1000" width="1.9563" height="0.2000" ry="0.1000" fill="currentColor"/>
</g>
<g transform="translate(8.5358, 6.2400)">
<line stroke-linejoin="round" stroke-linecap="round" stroke-width="0.1000" stroke="currentColor" x1="0.0500" y1="0" x2="49.2153" y2="0"/>
</g>
<g transform="translate(8.5358, 5.2400)">
<line stroke-linejoin="round" stroke-linecap="round" stroke-width="0.1000" stroke="currentColor" x1="0.0500" y1="0" x2="49.2153" y2="0"/>
</g>
<g transform="translate(8.5358, 4.2400)">
<line stroke-linejoin="round" stroke-linecap="round" stroke-width="0.1000" stroke="currentColor" x1="0.0500" y1="0" x2="49.2153" y2="0"/>
</g>
<g transform="translate(8.5358, 3.2400)">
<line stroke-linejoin="round" stroke-linecap="round" stroke-width="0.1000" stroke="currentColor" x1="0.0500" y1="0" x2="49.2153" y2="0"/>
</g>
<g transform="translate(8.5358, 2.2400)">
<line stroke-linejoin="round" stroke-linecap="round" stroke-width="0.1000" stroke="currentColor" x1="0.0500" y1="0" x2="49.2153" y2="0"/>
</g>
<g transform="translate(57.6112, 4.2400)">
<rect x="0.0000" y="-2.0000" width="0.1900" height="4.0000" ry="0.0000" fill="currentColor"/>
</g>
<g transform="translate(38.4436, 2.2400)">
<polygon stroke-linejoin="round" stroke-linecap="round" stroke-width="0.0800" fill="currentColor" stroke="currentColor" points="7.8526 -1.7000 7.8526 -1.3000 0.0400 0.2000 0.0400 -0.2000"/>
</g>
<g transform="translate(38.4436, 3.0500)">
<polygon stroke-linejoin="round" stroke-linecap="round" stroke-width="0.0800" fill="currentColor" stroke="currentColor" points="7.8526 -1.7000 7.8526 -1.3000 0.0400 0.2000 0.0400 -0.2000"/>
</g>
<g transform="translate(28.4268, 2.4300)">
<polygon stroke-linejoin="round" stroke-linecap="round" stroke-width="0.0800" fill="currentColor" stroke="currentColor" points="7.8526 -1.3900 7.8526 -0.9900 0.0400 0.2000 0.0400 -0.2000"/>
</g>
<g transform="translate(28.4268, 3.2400)">
<polygon stroke-linejoin="round" stroke-linecap="round" stroke-width="0.0800" fill="currentColor" stroke="currentColor" points="7.8526 -1.3900 7.8526 -0.9900 0.0400 0.2000 0.0400 -0.2000"/>
</g>
<g transform="translate(17.2358, 7.2400)">
<path transform="scale(0.0040, -0.0040)" d="M218 136c66 0 108 -36 108 -89c0 -89 -113 -183 -218 -183c-66 0 -108 36 -108 89c0 89 113 183 218 183z" fill="currentColor"/>
</g>
<g transform="translate(9.3358, 5.2400)">
<path transform="scale(0.0040, -0.0040)" d="M266 -635h-6c-108 0 -195 88 -195 197c0 58 53 103 112 103c54 0 95 -47 95 -103c0 -52 -43 -95 -95 -95c-11 0 -21 2 -31 6c26 -39 68 -65 117 -65h4zM461 -203c68 24 113 90 113 164c0 90 -66 179 -173 190c19 -89 48 -242 60 -354zM74 28c0 -145 141 -247 264 -247
c1 0 47 0 82 6c-7 64 -29 203 -63 364c-79 -8 -124 -61 -124 -119c0 -44 25 -91 81 -123c5 -5 7 -10 7 -15c0 -11 -10 -22 -22 -22c-15 0 -126 62 -126 187c0 88 58 174 160 197c-14 58 -29 117 -46 175c-107 -121 -213 -243 -213 -403zM250 553c-29 96 -52 170 -52 346
c0 115 55 224 149 292c6 5 14 5 20 0c68 -80 133 -245 133 -358c0 -143 -86 -255 -180 -364c21 -68 39 -138 56 -207c2 0 7 1 13 1c155 0 256 -128 256 -261c0 -113 -74 -212 -180 -246c3 -35 5 -70 5 -105c0 -19 -1 -39 -2 -58c-7 -119 -88 -225 -202 -228l1 43
c93 2 153 92 159 191c1 18 2 37 2 55c0 31 -1 61 -4 92c-5 -1 -44 -8 -89 -8c-193 0 -333 180 -333 374c0 177 131 306 248 441zM428 916c0 34 1 66 -20 129c-99 -48 -162 -149 -162 -259c0 -52 12 -115 36 -194c80 97 146 198 146 324z" fill="currentColor"/>
</g>
<g transform="translate(13.5358, 4.2400)">
<path transform="scale(0.0040, -0.0040)" d="M250 262c116 0 176 -106 176 -163c0 -40 -30 -72 -67 -72c-31 0 -75 25 -75 75c0 38 27 77 72 77c4 0 9 0 14 -1c-28 37 -72 59 -120 59c-106 0 -113 -73 -113 -186v-51v-51c0 -113 7 -187 113 -187c80 0 139 70 158 151c2 7 7 10 12 10c6 0 13 -4 13 -12
c0 -22 -50 -174 -183 -174c-59 0 -250 19 -250 263c0 62 18 262 250 262z" fill="currentColor"/>
</g>
<g transform="translate(18.4750, 4.2400)">
<rect x="-0.0650" y="-1.8198" width="0.1300" height="4.6336" ry="0.0400" fill="currentColor"/>
</g>
<g transform="translate(18.4100, 2.4300)">
<polygon stroke-linejoin="round" stroke-linecap="round" stroke-width="0.0800" fill="currentColor" stroke="currentColor" points="7.8526 -1.3900 7.8526 -0.9900 0.0400 0.2000 0.0400 -0.2000"/>
</g>
<g transform="translate(18.4100, 3.2400)">
<polygon stroke-linejoin="round" stroke-linecap="round" stroke-width="0.0800" fill="currentColor" stroke="currentColor" points="7.8526 -1.3900 7.8526 -0.9900 0.0400 0.2000 0.0400 -0.2000"/>
</g>
<g transform="translate(19.9900, 5.7400)">
<path transform="scale(0.0040, -0.0040)" d="M218 136c66 0 108 -36 108 -89c0 -89 -113 -183 -218 -183c-66 0 -108 36 -108 89c0 89 113 183 218 183z" fill="currentColor"/>
</g>
<g transform="translate(21.2292, 4.2400)">
<rect x="-0.0650" y="-2.2351" width="0.1300" height="3.5489" ry="0.0400" fill="currentColor"/>
</g>
<g transform="translate(22.4942, 5.2400)">
<path transform="scale(0.0040, -0.0040)" d="M218 136c66 0 108 -36 108 -89c0 -89 -113 -183 -218 -183c-66 0 -108 36 -108 89c0 89 113 183 218 183z" fill="currentColor"/>
</g>
<g transform="translate(23.7334, 4.2400)">
<rect x="-0.0650" y="-2.6126" width="0.1300" height="3.4264" ry="0.0400" fill="currentColor"/>
</g>
<g transform="translate(24.9984, 4.7400)">
<path transform="scale(0.0040, -0.0040)" d="M218 136c66 0 108 -36 108 -89c0 -89 -113 -183 -218 -183c-66 0 -108 36 -108 89c0 89 113 183 218 183z" fill="currentColor"/>
</g>
<g transform="translate(26.2376, 4.2400)">
<rect x="-0.0650" y="-2.9902" width="0.1300" height="3.3040" ry="0.0400" fill="currentColor"/>
</g>
<g transform="translate(27.2526, 6.7400)">
<path transform="scale(0.0040, -0.0040)" d="M218 136c66 0 108 -36 108 -89c0 -89 -113 -183 -218 -183c-66 0 -108 36 -108 89c0 89 113 183 218 183z" fill="currentColor"/>
</g>
<g transform="translate(28.4918, 4.2400)">
<rect x="-0.0650" y="-1.8198" width="0.1300" height="4.1336" ry="0.0400" fill="currentColor"/>
</g>
<g transform="translate(30.0068, 5.2400)">
<path transform="scale(0.0040, -0.0040)" d="M218 136c66 0 108 -36 108 -89c0 -89 -113 -183 -218 -183c-66 0 -108 36 -108 89c0 89 113 183 218 183z" fill="currentColor"/>
</g>
<g transform="translate(31.2460, 4.2400)">
<rect x="-0.0650" y="-2.2351" width="0.1300" height="3.0489" ry="0.0400" fill="currentColor"/>
</g>
<g transform="translate(32.5110, 4.7400)">
<path transform="scale(0.0040, -0.0040)" d="M218 136c66 0 108 -36 108 -89c0 -89 -113 -183 -218 -183c-66 0 -108 36 -108 89c0 89 113 183 218 183z" fill="currentColor"/>
</g>
<g transform="translate(33.7502, 4.2400)">
<rect x="-0.0650" y="-2.6126" width="0.1300" height="2.9264" ry="0.0400" fill="currentColor"/>
</g>
<g transform="translate(35.0152, 4.2400)">
<path transform="scale(0.0040, -0.0040)" d="M218 136c66 0 108 -36 108 -89c0 -89 -113 -183 -218 -183c-66 0 -108 36 -108 89c0 89 113 183 218 183z" fill="currentColor"/>
</g>
<g transform="translate(36.2544, 4.2400)">
<rect x="-0.0650" y="-2.9902" width="0.1300" height="2.8040" ry="0.0400" fill="currentColor"/>
</g>
<g transform="translate(48.4604, 1.4300)">
<polygon stroke-linejoin="round" stroke-linecap="round" stroke-width="0.0800" fill="currentColor" stroke="currentColor" points="7.8526 -1.3900 7.8526 -0.9900 0.0400 0.2000 0.0400 -0.2000"/>
</g>
<g transform="translate(48.4604, 2.2400)">
<polygon stroke-linejoin="round" stroke-linecap="round" stroke-width="0.0800" fill="currentColor" stroke="currentColor" points="7.8526 -1.3900 7.8526 -0.9900 0.0400 0.2000 0.0400 -0.2000"/>
</g>
<g transform="translate(37.2694, 6.2400)">
<path transform="scale(0.0040, -0.0040)" d="M218 136c66 0 108 -36 108 -89c0 -89 -113 -183 -218 -183c-66 0 -108 36 -108 89c0 89 113 183 218 183z" fill="currentColor"/>
</g>
<g transform="translate(38.5086, 4.2400)">
<rect x="-0.0650" y="-2.0124" width="0.1300" height="3.8262" ry="0.0400" fill="currentColor"/>
</g>
<g transform="translate(40.0236, 4.7400)">
<path transform="scale(0.0040, -0.0040)" d="M218 136c66 0 108 -36 108 -89c0 -89 -113 -183 -218 -183c-66 0 -108 36 -108 89c0 89 113 183 218 183z" fill="currentColor"/>
</g>
<g transform="translate(41.2628, 4.2400)">
<rect x="-0.0650" y="-2.5358" width="0.1300" height="2.8496" ry="0.0400" fill="currentColor"/>
</g>
<g transform="translate(42.5278, 4.2400)">
<path transform="scale(0.0040, -0.0040)" d="M218 136c66 0 108 -36 108 -89c0 -89 -113 -183 -218 -183c-66 0 -108 36 -108 89c0 89 113 183 218 183z" fill="currentColor"/>
</g>
<g transform="translate(43.7670, 4.2400)">
<rect x="-0.0650" y="-3.0117" width="0.1300" height="2.8255" ry="0.0400" fill="currentColor"/>
</g>
<g transform="translate(45.0320, 3.7400)">
<path transform="scale(0.0040, -0.0040)" d="M218 136c66 0 108 -36 108 -89c0 -89 -113 -183 -218 -183c-66 0 -108 36 -108 89c0 89 113 183 218 183z" fill="currentColor"/>
</g>
<g transform="translate(46.2712, 4.2400)">
<rect x="-0.0650" y="-3.4876" width="0.1300" height="2.8014" ry="0.0400" fill="currentColor"/>
</g>
<g transform="translate(47.2862, 5.7400)">
<path transform="scale(0.0040, -0.0040)" d="M218 136c66 0 108 -36 108 -89c0 -89 -113 -183 -218 -183c-66 0 -108 36 -108 89c0 89 113 183 218 183z" fill="currentColor"/>
</g>
<g transform="translate(48.5254, 4.2400)">
<rect x="-0.0650" y="-2.8198" width="0.1300" height="4.1336" ry="0.0400" fill="currentColor"/>
</g>
<g transform="translate(50.0404, 4.2400)">
<path transform="scale(0.0040, -0.0040)" d="M218 136c66 0 108 -36 108 -89c0 -89 -113 -183 -218 -183c-66 0 -108 36 -108 89c0 89 113 183 218 183z" fill="currentColor"/>
</g>
<g transform="translate(51.2796, 4.2400)">
<rect x="-0.0650" y="-3.2351" width="0.1300" height="3.0489" ry="0.0400" fill="currentColor"/>
</g>
<g transform="translate(52.5446, 3.7400)">
<path transform="scale(0.0040, -0.0040)" d="M218 136c66 0 108 -36 108 -89c0 -89 -113 -183 -218 -183c-66 0 -108 36 -108 89c0 89 113 183 218 183z" fill="currentColor"/>
</g>
<g transform="translate(53.7838, 4.2400)">
<rect x="-0.0650" y="-3.6126" width="0.1300" height="2.9264" ry="0.0400" fill="currentColor"/>
</g>
<g transform="translate(55.0488, 3.2400)">
<path transform="scale(0.0040, -0.0040)" d="M218 136c66 0 108 -36 108 -89c0 -89 -113 -183 -218 -183c-66 0 -108 36 -108 89c0 89 113 183 218 183z" fill="currentColor"/>
</g>
<g transform="translate(56.2880, 4.2400)">
<rect x="-0.0650" y="-3.9902" width="0.1300" height="2.8040" ry="0.0400" fill="currentColor"/>
</g>
</svg>
